<svg xmlns="http://www.w3.org/2000/svg" xmlns:xlink="http://www.w3.org/1999/xlink" width="400" zoomAndPan="magnify" viewBox="0 0 300 299.999988" height="400" preserveAspectRatio="xMidYMid meet" version="1.0"><defs><g/><clipPath id="3b94ec8945"><path d="M 46.875 138.386719 L 60.375 138.386719 L 60.375 161.636719 L 46.875 161.636719 Z M 46.875 138.386719 " clip-rule="nonzero"/></clipPath><clipPath id="ad0cbe7bef"><path d="M 70.40625 138.351562 L 83.90625 138.351562 L 83.90625 161.601562 L 70.40625 161.601562 Z M 70.40625 138.351562 " clip-rule="nonzero"/></clipPath><clipPath id="3a0d8bf2f3"><path d="M 53.78125 155.007812 L 77 155.007812 L 77 168.507812 L 53.78125 168.507812 Z M 53.78125 155.007812 " clip-rule="nonzero"/></clipPath><clipPath id="de83ba275b"><path d="M 53.746094 131.480469 L 76.996094 131.480469 L 76.996094 144.980469 L 53.746094 144.980469 Z M 53.746094 131.480469 " clip-rule="nonzero"/></clipPath><clipPath id="4620799e93"><rect x="0" width="163" y="0" height="40"/></clipPath></defs><rect x="-30" width="360" fill="#ffffff" y="-29.999999" height="359.999986" fill-opacity="1"/><rect x="-30" width="360" fill="#222831" y="-29.999999" height="359.999986" fill-opacity="1"/><g clip-path="url(#3b94ec8945)"><path fill="#00adb5" d="M 46.875 161.570312 L 53.570312 149.996094 L 46.875 138.417969 L 53.984375 138.417969 L 60.679688 149.996094 L 53.984375 161.570312 Z M 46.875 161.570312 " fill-opacity="1" fill-rule="nonzero"/></g><g clip-path="url(#ad0cbe7bef)"><path fill="#00adb5" d="M 83.90625 138.417969 L 77.207031 149.996094 L 83.90625 161.570312 L 76.796875 161.570312 L 70.101562 149.996094 L 76.796875 138.417969 Z M 83.90625 138.417969 " fill-opacity="1" fill-rule="nonzero"/></g><g clip-path="url(#3a0d8bf2f3)"><path fill="#00adb5" d="M 76.964844 168.507812 L 65.390625 161.8125 L 53.8125 168.507812 L 53.8125 161.402344 L 65.390625 154.703125 L 76.964844 161.402344 Z M 76.964844 168.507812 " fill-opacity="1" fill-rule="nonzero"/></g><g clip-path="url(#de83ba275b)"><path fill="#00adb5" d="M 53.8125 131.480469 L 65.390625 138.175781 L 76.964844 131.480469 L 76.964844 138.589844 L 65.390625 145.285156 L 53.8125 138.589844 Z M 53.8125 131.480469 " fill-opacity="1" fill-rule="nonzero"/></g><g transform="matrix(1, 0, 0, 1, 92, 130)"><g clip-path="url(#4620799e93)"><g fill="#eeeeee" fill-opacity="1"><g transform="translate(0.698966, 28.999987)"><g><path d="M 2.734375 0 L 2.734375 -18.75 L 9.21875 -18.75 C 11.144531 -18.75 12.828125 -18.351562 14.265625 -17.5625 C 15.703125 -16.769531 16.820312 -15.671875 17.625 -14.265625 C 18.4375 -12.867188 18.84375 -11.238281 18.84375 -9.375 C 18.84375 -7.539062 18.4375 -5.914062 17.625 -4.5 C 16.820312 -3.09375 15.703125 -1.988281 14.265625 -1.1875 C 12.828125 -0.394531 11.144531 0 9.21875 0 Z M 5.09375 -2.25 L 9.21875 -2.25 C 10.644531 -2.25 11.898438 -2.546875 12.984375 -3.140625 C 14.066406 -3.742188 14.910156 -4.582031 15.515625 -5.65625 C 16.117188 -6.726562 16.421875 -7.96875 16.421875 -9.375 C 16.421875 -10.800781 16.113281 -12.046875 15.5 -13.109375 C 14.882812 -14.179688 14.03125 -15.015625 12.9375 -15.609375 C 11.851562 -16.203125 10.578125 -16.5 9.109375 -16.5 L 5.09375 -16.5 Z M 5.09375 -2.25 "/></g></g></g><g fill="#eeeeee" fill-opacity="1"><g transform="translate(18.730486, 28.999987)"><g><path d="M 2.484375 0 L 2.484375 -13.90625 L 4.75 -13.90625 L 4.75 0 Z M 1.796875 -17.953125 C 1.796875 -18.472656 1.957031 -18.894531 2.28125 -19.21875 C 2.613281 -19.550781 3.0625 -19.71875 3.625 -19.71875 C 4.175781 -19.71875 4.609375 -19.550781 4.921875 -19.21875 C 5.242188 -18.894531 5.40625 -18.472656 5.40625 -17.953125 C 5.40625 -17.453125 5.242188 -17.035156 4.921875 -16.703125 C 4.609375 -16.378906 4.175781 -16.21875 3.625 -16.21875 C 3.0625 -16.21875 2.613281 -16.378906 2.28125 -16.703125 C 1.957031 -17.035156 1.796875 -17.453125 1.796875 -17.953125 Z M 1.796875 -17.953125 "/></g></g></g><g fill="#eeeeee" fill-opacity="1"><g transform="translate(23.606264, 28.999987)"><g><path d="M 8.703125 5.703125 C 6.941406 5.703125 5.46875 5.269531 4.28125 4.40625 C 3.101562 3.539062 2.390625 2.367188 2.140625 0.890625 L 4.421875 0.890625 C 4.640625 1.722656 5.125 2.382812 5.875 2.875 C 6.625 3.375 7.566406 3.625 8.703125 3.625 C 10.171875 3.625 11.304688 3.226562 12.109375 2.4375 C 12.910156 1.65625 13.3125 0.546875 13.3125 -0.890625 L 13.3125 -2.203125 C 12.707031 -1.554688 11.972656 -1.050781 11.109375 -0.6875 C 10.253906 -0.320312 9.328125 -0.140625 8.328125 -0.140625 C 7.003906 -0.140625 5.820312 -0.445312 4.78125 -1.0625 C 3.738281 -1.675781 2.910156 -2.515625 2.296875 -3.578125 C 1.691406 -4.640625 1.390625 -5.847656 1.390625 -7.203125 C 1.390625 -8.566406 1.691406 -9.773438 2.296875 -10.828125 C 2.910156 -11.878906 3.738281 -12.710938 4.78125 -13.328125 C 5.820312 -13.941406 7.003906 -14.25 8.328125 -14.25 C 9.390625 -14.25 10.359375 -14.050781 11.234375 -13.65625 C 12.117188 -13.269531 12.867188 -12.726562 13.484375 -12.03125 L 13.71875 -13.90625 L 15.5625 -13.90625 L 15.5625 -0.796875 C 15.5625 0.503906 15.28125 1.644531 14.71875 2.625 C 14.15625 3.601562 13.359375 4.359375 12.328125 4.890625 C 11.304688 5.429688 10.097656 5.703125 8.703125 5.703125 Z M 3.640625 -7.203125 C 3.640625 -6.253906 3.847656 -5.410156 4.265625 -4.671875 C 4.691406 -3.929688 5.28125 -3.351562 6.03125 -2.9375 C 6.78125 -2.53125 7.628906 -2.328125 8.578125 -2.328125 C 9.535156 -2.328125 10.382812 -2.53125 11.125 -2.9375 C 11.875 -3.351562 12.457031 -3.929688 12.875 -4.671875 C 13.289062 -5.410156 13.5 -6.253906 13.5 -7.203125 C 13.5 -8.148438 13.289062 -8.988281 12.875 -9.71875 C 12.457031 -10.457031 11.875 -11.035156 11.125 -11.453125 C 10.382812 -11.867188 9.535156 -12.078125 8.578125 -12.078125 C 7.628906 -12.078125 6.78125 -11.867188 6.03125 -11.453125 C 5.28125 -11.035156 4.691406 -10.457031 4.265625 -9.71875 C 3.847656 -8.988281 3.640625 -8.148438 3.640625 -7.203125 Z M 3.640625 -7.203125 "/></g></g></g><g fill="#eeeeee" fill-opacity="1"><g transform="translate(39.306723, 28.999987)"><g><path d="M 2.484375 0 L 2.484375 -13.90625 L 4.75 -13.90625 L 4.75 0 Z M 1.796875 -17.953125 C 1.796875 -18.472656 1.957031 -18.894531 2.28125 -19.21875 C 2.613281 -19.550781 3.0625 -19.71875 3.625 -19.71875 C 4.175781 -19.71875 4.609375 -19.550781 4.921875 -19.21875 C 5.242188 -18.894531 5.40625 -18.472656 5.40625 -17.953125 C 5.40625 -17.453125 5.242188 -17.035156 4.921875 -16.703125 C 4.609375 -16.378906 4.175781 -16.21875 3.625 -16.21875 C 3.0625 -16.21875 2.613281 -16.378906 2.28125 -16.703125 C 1.957031 -17.035156 1.796875 -17.453125 1.796875 -17.953125 Z M 1.796875 -17.953125 "/></g></g></g><g fill="#eeeeee" fill-opacity="1"><g transform="translate(44.182501, 28.999987)"><g><path d="M 8.5 0 C 6.957031 0 5.757812 -0.4375 4.90625 -1.3125 C 4.0625 -2.1875 3.640625 -3.421875 3.640625 -5.015625 L 3.640625 -11.84375 L 0.71875 -11.84375 L 0.71875 -13.90625 L 2.109375 -13.90625 C 2.753906 -13.90625 3.203125 -14.007812 3.453125 -14.21875 C 3.703125 -14.4375 3.863281 -14.859375 3.9375 -15.484375 L 4.15625 -17.359375 L 5.890625 -17.359375 L 5.890625 -13.90625 L 10.390625 -13.90625 L 10.390625 -11.84375 L 5.890625 -11.84375 L 5.890625 -5.125 C 5.890625 -3.15625 6.796875 -2.171875 8.609375 -2.171875 L 10.578125 -2.171875 L 10.578125 0 Z M 8.5 0 "/></g></g></g><g fill="#eeeeee" fill-opacity="1"><g transform="translate(53.7204, 28.999987)"><g><path d="M 7.046875 0.21875 C 5.367188 0.21875 4.054688 -0.160156 3.109375 -0.921875 C 2.160156 -1.679688 1.6875 -2.710938 1.6875 -4.015625 C 1.6875 -5.285156 2.125 -6.296875 3 -7.046875 C 3.875 -7.796875 5.035156 -8.171875 6.484375 -8.171875 L 12.171875 -8.171875 L 12.171875 -8.6875 C 12.171875 -9.769531 11.828125 -10.617188 11.140625 -11.234375 C 10.460938 -11.859375 9.535156 -12.171875 8.359375 -12.171875 C 7.460938 -12.171875 6.679688 -11.96875 6.015625 -11.5625 C 5.359375 -11.15625 4.914062 -10.613281 4.6875 -9.9375 L 2.40625 -9.9375 C 2.71875 -11.28125 3.40625 -12.332031 4.46875 -13.09375 C 5.53125 -13.863281 6.816406 -14.25 8.328125 -14.25 C 9.546875 -14.25 10.609375 -14.019531 11.515625 -13.5625 C 12.429688 -13.113281 13.144531 -12.484375 13.65625 -11.671875 C 14.164062 -10.859375 14.421875 -9.914062 14.421875 -8.84375 L 14.421875 0 L 12.5625 0 L 12.328125 -1.921875 C 11.054688 -0.492188 9.296875 0.21875 7.046875 0.21875 Z M 3.9375 -4.046875 C 3.9375 -3.367188 4.222656 -2.820312 4.796875 -2.40625 C 5.367188 -2 6.144531 -1.796875 7.125 -1.796875 C 8.09375 -1.796875 8.953125 -1.984375 9.703125 -2.359375 C 10.453125 -2.734375 11.050781 -3.25 11.5 -3.90625 C 11.945312 -4.570312 12.175781 -5.332031 12.1875 -6.1875 L 6.5625 -6.1875 C 5.789062 -6.1875 5.160156 -5.992188 4.671875 -5.609375 C 4.179688 -5.222656 3.9375 -4.703125 3.9375 -4.046875 Z M 3.9375 -4.046875 "/></g></g></g><g fill="#eeeeee" fill-opacity="1"><g transform="translate(67.973997, 28.999987)"><g><path d="M 2.484375 0 L 2.484375 -19.828125 L 4.75 -19.828125 L 4.75 0 Z M 2.484375 0 "/></g></g></g><g fill="#eeeeee" fill-opacity="1"><g transform="translate(77.136091, 28.999987)"><g><path d="M 2.734375 0 L 2.734375 -18.75 L 4.9375 -18.75 L 12.296875 -7.640625 L 19.609375 -18.75 L 21.8125 -18.75 L 21.8125 0 L 19.453125 0 L 19.453125 -14.34375 L 13.234375 -4.984375 L 11.3125 -4.984375 L 5.09375 -14.359375 L 5.09375 0 Z M 2.734375 0 "/></g></g></g><g fill="#eeeeee" fill-opacity="1"><g transform="translate(99.320644, 28.999987)"><g><path d="M 7.046875 0.21875 C 5.367188 0.21875 4.054688 -0.160156 3.109375 -0.921875 C 2.160156 -1.679688 1.6875 -2.710938 1.6875 -4.015625 C 1.6875 -5.285156 2.125 -6.296875 3 -7.046875 C 3.875 -7.796875 5.035156 -8.171875 6.484375 -8.171875 L 12.171875 -8.171875 L 12.171875 -8.6875 C 12.171875 -9.769531 11.828125 -10.617188 11.140625 -11.234375 C 10.460938 -11.859375 9.535156 -12.171875 8.359375 -12.171875 C 7.460938 -12.171875 6.679688 -11.96875 6.015625 -11.5625 C 5.359375 -11.15625 4.914062 -10.613281 4.6875 -9.9375 L 2.40625 -9.9375 C 2.71875 -11.28125 3.40625 -12.332031 4.46875 -13.09375 C 5.53125 -13.863281 6.816406 -14.25 8.328125 -14.25 C 9.546875 -14.25 10.609375 -14.019531 11.515625 -13.5625 C 12.429688 -13.113281 13.144531 -12.484375 13.65625 -11.671875 C 14.164062 -10.859375 14.421875 -9.914062 14.421875 -8.84375 L 14.421875 0 L 12.5625 0 L 12.328125 -1.921875 C 11.054688 -0.492188 9.296875 0.21875 7.046875 0.21875 Z M 3.9375 -4.046875 C 3.9375 -3.367188 4.222656 -2.820312 4.796875 -2.40625 C 5.367188 -2 6.144531 -1.796875 7.125 -1.796875 C 8.09375 -1.796875 8.953125 -1.984375 9.703125 -2.359375 C 10.453125 -2.734375 11.050781 -3.25 11.5 -3.90625 C 11.945312 -4.570312 12.175781 -5.332031 12.1875 -6.1875 L 6.5625 -6.1875 C 5.789062 -6.1875 5.160156 -5.992188 4.671875 -5.609375 C 4.179688 -5.222656 3.9375 -4.703125 3.9375 -4.046875 Z M 3.9375 -4.046875 "/></g></g></g><g fill="#eeeeee" fill-opacity="1"><g transform="translate(113.574241, 28.999987)"><g><path d="M 2.484375 0 L 2.484375 -13.90625 L 4.34375 -13.90625 L 4.609375 -11.5 C 5.109375 -12.332031 5.726562 -12.941406 6.46875 -13.328125 C 7.207031 -13.710938 8.171875 -13.90625 9.359375 -13.90625 L 10.609375 -13.90625 L 10.609375 -11.8125 L 9.25 -11.8125 C 8.40625 -11.8125 7.644531 -11.640625 6.96875 -11.296875 C 6.289062 -10.960938 5.75 -10.398438 5.34375 -9.609375 C 4.945312 -8.828125 4.75 -7.773438 4.75 -6.453125 L 4.75 0 Z M 2.484375 0 "/></g></g></g><g fill="#eeeeee" fill-opacity="1"><g transform="translate(122.897787, 28.999987)"><g><path d="M 2.484375 0 L 2.484375 -19.828125 L 4.75 -19.828125 L 4.75 -8.09375 L 6.484375 -8.09375 C 7.609375 -8.09375 8.472656 -8.285156 9.078125 -8.671875 C 9.691406 -9.054688 10.191406 -9.8125 10.578125 -10.9375 L 11.625 -13.90625 L 14.046875 -13.90625 L 12.640625 -10.109375 C 12.078125 -8.566406 11.3125 -7.492188 10.34375 -6.890625 L 14.6875 0 L 12 0 L 8.171875 -6.140625 C 7.898438 -6.085938 7.617188 -6.050781 7.328125 -6.03125 C 7.035156 -6.007812 6.726562 -6 6.40625 -6 L 4.75 -6 L 4.75 0 Z M 2.484375 0 "/></g></g></g><g fill="#eeeeee" fill-opacity="1"><g transform="translate(136.160015, 28.999987)"><g><path d="M 8.515625 0.34375 C 7.128906 0.34375 5.898438 0.0351562 4.828125 -0.578125 C 3.753906 -1.191406 2.910156 -2.050781 2.296875 -3.15625 C 1.691406 -4.269531 1.390625 -5.539062 1.390625 -6.96875 C 1.390625 -8.394531 1.691406 -9.65625 2.296875 -10.75 C 2.910156 -11.851562 3.753906 -12.710938 4.828125 -13.328125 C 5.910156 -13.941406 7.148438 -14.25 8.546875 -14.25 C 10.023438 -14.25 11.3125 -13.898438 12.40625 -13.203125 C 13.5 -12.515625 14.332031 -11.554688 14.90625 -10.328125 C 15.488281 -9.109375 15.753906 -7.6875 15.703125 -6.0625 L 3.671875 -6.0625 C 3.847656 -4.75 4.375 -3.703125 5.25 -2.921875 C 6.125 -2.148438 7.222656 -1.765625 8.546875 -1.765625 C 9.460938 -1.765625 10.296875 -1.960938 11.046875 -2.359375 C 11.796875 -2.753906 12.382812 -3.316406 12.8125 -4.046875 L 15.359375 -4.046875 C 14.804688 -2.691406 13.921875 -1.617188 12.703125 -0.828125 C 11.484375 -0.046875 10.085938 0.34375 8.515625 0.34375 Z M 3.703125 -8.03125 L 13.453125 -8.03125 C 13.222656 -9.300781 12.664062 -10.300781 11.78125 -11.03125 C 10.894531 -11.769531 9.816406 -12.140625 8.546875 -12.140625 C 7.265625 -12.140625 6.1875 -11.765625 5.3125 -11.015625 C 4.4375 -10.265625 3.898438 -9.269531 3.703125 -8.03125 Z M 3.703125 -8.03125 "/></g></g></g><g fill="#eeeeee" fill-opacity="1"><g transform="translate(150.842316, 28.999987)"><g><path d="M 8.5 0 C 6.957031 0 5.757812 -0.4375 4.90625 -1.3125 C 4.0625 -2.1875 3.640625 -3.421875 3.640625 -5.015625 L 3.640625 -11.84375 L 0.71875 -11.84375 L 0.71875 -13.90625 L 2.109375 -13.90625 C 2.753906 -13.90625 3.203125 -14.007812 3.453125 -14.21875 C 3.703125 -14.4375 3.863281 -14.859375 3.9375 -15.484375 L 4.15625 -17.359375 L 5.890625 -17.359375 L 5.890625 -13.90625 L 10.390625 -13.90625 L 10.390625 -11.84375 L 5.890625 -11.84375 L 5.890625 -5.125 C 5.890625 -3.15625 6.796875 -2.171875 8.609375 -2.171875 L 10.578125 -2.171875 L 10.578125 0 Z M 8.5 0 "/></g></g></g></g></g></svg>